<svg xmlns="http://www.w3.org/2000/svg" viewBox="0 0 90.08 49.36"><defs><style>.cls-1{fill:#034ea2;}.cls-2{fill:#f26522;}</style></defs><g id="Layer_2" data-name="Layer 2"><g id="Layer_1-2" data-name="Layer 1"><g id="QS_LOGO" data-name="QS LOGO"><path class="cls-1" d="M37.29,24.79H76.35s0-1.43,0-1.43H37.29s0,1.43,0,1.43"/><path class="cls-2" d="M60.37,3.22v3.3H87.9A7.08,7.08,0,0,0,86,1.8C84.66.6,82.24,0,78.74,0H57.57q-5.43,0-7.34,1.87c-1.27,1.25-1.9,3.56-1.9,7V13q0,5.07,1.9,7c1.27,1.24,3.72,1.87,7.34,1.87H76.35V19l6.06,7.1-6.06,7.1V30.27h-28c.2,2.37.81,4.15,1.84,5.15,1.28,1.24,3.74,1.87,7.39,1.87h21.6c3.64,0,6.11-.63,7.39-1.87s1.92-3.56,1.92-7V23.35q0-5.07-1.92-7c-1.28-1.24-3.75-1.87-7.39-1.87H60.37v2.9l-6.06-7.11Z"/><path class="cls-1" d="M90.08,20.51c-.1-4.66-1.23-8.08-6.3-8.75a56.13,56.13,0,0,0-7.45-.17h-16v1.53H75.28c1.85,0,3.7,0,5.54,0,2.11,0,4.58.07,6.45,1.2,2.53,1.53,2.75,4.88,2.8,7.52,0,.06,0-1,0-1.33"/><path class="cls-2" d="M44,35.43q1.56-1.5,1.84-5.16H29.31l-5-10.62L18,22.19l3.46,8.08H8.68V6.67H37.29v15.1h8.64V8.82c0-3.39-.64-5.7-1.91-6.95S40.31,0,36.69,0H9.24Q3.81,0,1.9,1.87C.63,3.12,0,5.43,0,8.82V28.47q0,5.12,1.9,7t7.34,1.86H24.55l5.53,12.07h8.61l-6-12.07h4q5.43,0,7.33-1.86"/><rect class="cls-1" x="51.84" y="40.55" width="8.29" height="2.09"/><rect class="cls-1" x="51.84" y="43.91" width="8.29" height="2.09"/><rect class="cls-1" x="51.84" y="47.27" width="8.29" height="2.09"/><polygon class="cls-1" points="69.96 40.55 67.73 46.27 65.5 40.55 61.94 40.55 61.94 49.36 64.19 49.36 64.14 43.18 66.79 49.36 68.68 49.36 71.3 43.24 71.25 49.36 73.5 49.36 73.5 40.55 69.96 40.55"/><rect class="cls-1" x="75.29" y="40.55" width="2.4" height="8.81"/><polygon class="cls-1" points="79.42 40.55 88.49 40.55 88.49 42.8 85.16 42.8 85.16 49.36 82.76 49.36 82.76 42.8 79.42 42.8 79.42 40.55"/><path class="cls-1" d="M49.78,46.43a1.35,1.35,0,0,0-1-.48,1.79,1.79,0,0,0,.91-.4,1.39,1.39,0,0,0,.38-.72,7.07,7.07,0,0,0,.1-1.42A6.14,6.14,0,0,0,50,41.74a1.53,1.53,0,0,0-.58-.84,1.61,1.61,0,0,0-.74-.3c-.26,0-1,0-2.33-.05H40.82v8.81H43.1V42.75h3.2l1,0a.82.82,0,0,1,.29.08.58.58,0,0,1,.24.31,2.49,2.49,0,0,1,.07.65,2.59,2.59,0,0,1-.06.65.59.59,0,0,1-.21.33.63.63,0,0,1-.28.1l-1,0H44.72v2.2h1.59a7.74,7.74,0,0,1,.93,0,.58.58,0,0,1,.35.2,1,1,0,0,1,.17.48,6.65,6.65,0,0,1,.05,1v.47h2.25v-.82A14.82,14.82,0,0,0,50,47a1.32,1.32,0,0,0-.23-.61"/></g></g></g></svg>