<svg xmlns="http://www.w3.org/2000/svg" xmlns:xlink="http://www.w3.org/1999/xlink" viewBox="0 0 281.34 170.65"><defs><style>.cls-1{fill:none;}.cls-2{fill:#231f20;}.cls-3{clip-path:url(#clip-path);}.cls-4{clip-path:url(#clip-path-2);}.cls-5{fill:#e07e27;}</style><clipPath id="clip-path"><rect class="cls-1" x="238" y="142" width="8" height="28.65"/></clipPath><clipPath id="clip-path-2"><rect class="cls-1" x="265" y="142" width="16.34" height="24"/></clipPath></defs><g id="Layer_2" data-name="Layer 2"><g id="Layer_1-2" data-name="Layer 1"><g id="surface1"><path class="cls-2" d="M3.45,165.36v-1.53a2.56,2.56,0,0,0,1.63-.56,2.19,2.19,0,0,0,.47-1.58v-17a3,3,0,0,0-2.14.76,4.73,4.73,0,0,0-1.22,2.37H0V143H17.33v4.85H15.12a4.89,4.89,0,0,0-1.22-2.37,2.85,2.85,0,0,0-2-.76h-.08v17a2.25,2.25,0,0,0,.45,1.59,2.47,2.47,0,0,0,1.59.55v1.53H3.45"/><path class="cls-2" d="M19,165.36v-1.53a1.55,1.55,0,0,0,1.07-.36,2.42,2.42,0,0,0,.29-1.46V146.18L19,145.05v-1l4.72-1.8h1.72v10a7.15,7.15,0,0,1,2.12-1.65,5.29,5.29,0,0,1,2.35-.54A3.72,3.72,0,0,1,33,151.31a5.9,5.9,0,0,1,1,3.76V162a2.39,2.39,0,0,0,.28,1.47,1.56,1.56,0,0,0,1,.35v1.53H27.72l0-1.53a1.07,1.07,0,0,0,.85-.35,2.6,2.6,0,0,0,.25-1.38v-7.42a2.26,2.26,0,0,0-.27-1.35,1.19,1.19,0,0,0-1-.32,2.66,2.66,0,0,0-1.16.27,3.13,3.13,0,0,0-1,.77v8a2.7,2.7,0,0,0,.23,1.39,1.07,1.07,0,0,0,.87.34v1.53H19"/><path class="cls-2" d="M49.24,160.78l1.64,1a6.92,6.92,0,0,1-2.54,2.93,7.39,7.39,0,0,1-3.85.91,6.65,6.65,0,0,1-5.08-2.07,7.69,7.69,0,0,1-1.95-5.5,8.31,8.31,0,0,1,2-5.83A6.78,6.78,0,0,1,44.72,150a5.82,5.82,0,0,1,4.43,1.71,6.53,6.53,0,0,1,1.62,4.7v.48H42.68a8,8,0,0,0,1,4.21,3,3,0,0,0,2.66,1.43,2.84,2.84,0,0,0,1.5-.39A5.24,5.24,0,0,0,49.24,160.78Zm-6.6-5.51h3.19v-.73a5,5,0,0,0-.35-2.13,1.11,1.11,0,0,0-1.06-.69,1.47,1.47,0,0,0-1.37.73,5.06,5.06,0,0,0-.41,2.35v.47"/><path class="cls-2" d="M62.09,165.36v-1.53a2.56,2.56,0,0,0,1.61-.54,2.28,2.28,0,0,0,.44-1.58V146.55a2.3,2.3,0,0,0-.41-1.64,2.9,2.9,0,0,0-1.64-.47V143H72a11.34,11.34,0,0,1,6.16,1.42,4.47,4.47,0,0,1,2.19,4A4.59,4.59,0,0,1,79,151.81a8.26,8.26,0,0,1-4.19,1.8,9.56,9.56,0,0,1,4.74,2,4.75,4.75,0,0,1,1.61,3.68,5.17,5.17,0,0,1-2.13,4.6q-2.11,1.46-6.73,1.45Zm8.21-20.81v8.34a3.87,3.87,0,0,0,3-1,5.55,5.55,0,0,0,.84-3.54,4.16,4.16,0,0,0-.84-2.85,3.2,3.2,0,0,0-2.54-.94Zm0,16.74a3.94,3.94,0,0,0,.34,2,1.29,1.29,0,0,0,1.18.53,2.21,2.21,0,0,0,2-1.14,6,6,0,0,0,.71-3.2,5.81,5.81,0,0,0-1-3.76,4.12,4.12,0,0,0-3.22-1.21v6.8"/><path class="cls-2" d="M84.29,155.79a7.45,7.45,0,0,1-.21-.95,5.79,5.79,0,0,1-.06-.79,3.26,3.26,0,0,1,1.78-3,9.86,9.86,0,0,1,5-1.05,6.53,6.53,0,0,1,4.31,1.18,4.6,4.6,0,0,1,1.38,3.7v6.22a3.43,3.43,0,0,0,.17,1.29.6.6,0,0,0,.59.36.87.87,0,0,0,.35-.07,3.46,3.46,0,0,0,.45-.24v1.91a4.93,4.93,0,0,1-1.65,1,5.8,5.8,0,0,1-2,.35,3,3,0,0,1-1.74-.45,2.39,2.39,0,0,1-.92-1.34,8.19,8.19,0,0,1-2.14,1.29,6.13,6.13,0,0,1-2.23.42,4.37,4.37,0,0,1-2.94-.91,3.2,3.2,0,0,1-1.06-2.56,3.57,3.57,0,0,1,.92-2.54,10.25,10.25,0,0,1,3.58-2l3.48-1.4v-2.79a2.42,2.42,0,0,0-.27-1.31,1,1,0,0,0-.89-.39,1.4,1.4,0,0,0-1.09.41,1.76,1.76,0,0,0-.36,1.2q0,.18,0,.51c0,.21,0,.46.08.76Zm7,2.09-1.46.84a3.85,3.85,0,0,0-1.32,1,2.12,2.12,0,0,0-.37,1.27,2,2,0,0,0,.47,1.41,1.61,1.61,0,0,0,1.25.5A1.27,1.27,0,0,0,91,162.5a2.07,2.07,0,0,0,.35-1.34v-3.28"/><path class="cls-2" d="M100.32,165.36v-1.53a1.51,1.51,0,0,0,1-.35,2.39,2.39,0,0,0,.28-1.47v-8l-1.32-1.14v-.94l4.72-1.81h1.74v2.19a7.58,7.58,0,0,1,2.13-1.65,5.25,5.25,0,0,1,2.34-.54,3.69,3.69,0,0,1,3,1.24,6,6,0,0,1,1,3.76V162a2.34,2.34,0,0,0,.29,1.46,1.52,1.52,0,0,0,1.06.36v1.53H109.1v-1.53a1.07,1.07,0,0,0,.86-.35,2.62,2.62,0,0,0,.24-1.38v-7.42a2.41,2.41,0,0,0-.26-1.34,1.16,1.16,0,0,0-1-.33,2.7,2.7,0,0,0-1.17.27,3.16,3.16,0,0,0-1,.77v8a2.57,2.57,0,0,0,.24,1.39,1,1,0,0,0,.86.34v1.53h-7.56"/><path class="cls-2" d="M118.86,165.36l0-1.53a1.57,1.57,0,0,0,1.07-.36,2.44,2.44,0,0,0,.28-1.46V146.18l-1.33-1.13v-1l4.71-1.8h1.73v14.92l2.61-2.93a1.78,1.78,0,0,0,.36-.56,1.54,1.54,0,0,0,.13-.6.88.88,0,0,0-.39-.73,3.21,3.21,0,0,0-1.23-.45l0-1.54h6.63v1.53a3.94,3.94,0,0,0-1.45.55,5.51,5.51,0,0,0-1.3,1.18l-1.71,2,3.66,5.83a6.11,6.11,0,0,0,.92,1.21,1.49,1.49,0,0,0,.82.43v2.34c-.41.09-.76.16-1.07.2a6.55,6.55,0,0,1-.86.06,4.47,4.47,0,0,1-2.22-.47,5.94,5.94,0,0,1-1.78-2l-3.1-5.17v4a2.6,2.6,0,0,0,.23,1.38,1.13,1.13,0,0,0,.86.35v1.53h-7.57"/><path class="cls-2" d="M152.35,150.07a7,7,0,0,1,5.36,2.11,9.23,9.23,0,0,1,0,11.45,7.8,7.8,0,0,1-10.67,0,9.27,9.27,0,0,1,0-11.45A6.91,6.91,0,0,1,152.35,150.07Zm0,1.65a1.46,1.46,0,0,0-1.42,1.17,19.28,19.28,0,0,0-.4,5,18.86,18.86,0,0,0,.4,5,1.45,1.45,0,0,0,1.42,1.16,1.43,1.43,0,0,0,1.41-1.12,19.49,19.49,0,0,0,.39-5,19.93,19.93,0,0,0-.39-5,1.46,1.46,0,0,0-1.41-1.18"/><path class="cls-2" d="M161.81,165.36l0-1.53a1.55,1.55,0,0,0,1.07-.36,2.42,2.42,0,0,0,.29-1.46V152.5h-1.75v-2.08a2.7,2.7,0,0,0,1-.21.83.83,0,0,0,.5-.49,12.76,12.76,0,0,0,.26-1.25,9.63,9.63,0,0,1,.5-1.86,6.48,6.48,0,0,1,2.5-3.2,7.17,7.17,0,0,1,4.07-1.11,5.35,5.35,0,0,1,2.89.69,2.12,2.12,0,0,1,1.1,1.85,1.71,1.71,0,0,1-.64,1.37,2.58,2.58,0,0,1-1.68.52,2.14,2.14,0,0,1-1.4-.39,1.81,1.81,0,0,1-.61-1.23,1.51,1.51,0,0,0-.23-.73.56.56,0,0,0-.46-.2.84.84,0,0,0-.69.31,1.41,1.41,0,0,0-.25.87v5.06h2.39v2.08h-2.39V162a2.42,2.42,0,0,0,.29,1.46,1.52,1.52,0,0,0,1.06.36v1.53h-7.83"/><path class="cls-2" d="M181.54,165.36v-1.53a2.51,2.51,0,0,0,1.61-.54,2.23,2.23,0,0,0,.45-1.58V146.55a2.24,2.24,0,0,0-.42-1.64,2.87,2.87,0,0,0-1.64-.47V143h9.65c3,0,5.2.54,6.71,1.61a5.48,5.48,0,0,1,2.27,4.78,5.64,5.64,0,0,1-2,4.59,8.55,8.55,0,0,1-5.56,1.65,3,3,0,0,1-1.39-.26.84.84,0,0,1-.47-.75c0-.34.27-.59.81-.76a5.76,5.76,0,0,0,1-.36,2.4,2.4,0,0,0,1-1.22,10.28,10.28,0,0,0,.27-2.93,6,6,0,0,0-.91-3.7,3.54,3.54,0,0,0-2.93-1.15h-.08v17.26a2.23,2.23,0,0,0,.45,1.58,2.55,2.55,0,0,0,1.63.54v1.53H181.54"/><path class="cls-2" d="M208,150.07v11a2.27,2.27,0,0,0,.27,1.33,1.24,1.24,0,0,0,1,.34,2.63,2.63,0,0,0,1.13-.27,3.34,3.34,0,0,0,1-.78v-7.17a3.81,3.81,0,0,0-.25-1.6,1.82,1.82,0,0,0-.86-.77v-1.38l4.45-.72h1.78v11.31a3.59,3.59,0,0,0,.29,1.71,1.59,1.59,0,0,0,1,.74v1.47l-6.42.44v-2.23a7.44,7.44,0,0,1-2.17,1.66,5.19,5.19,0,0,1-2.32.57,3.6,3.6,0,0,1-3-1.28,5.93,5.93,0,0,1-1-3.77v-6.15a3.3,3.3,0,0,0-.31-1.68,1.57,1.57,0,0,0-1.06-.69v-1.38l4.71-.72H208"/><path class="cls-2" d="M220.43,165.36v-1.53a1.53,1.53,0,0,0,1-.35,2.47,2.47,0,0,0,.28-1.47v-8l-1.32-1.14v-.94l4.71-1.81h1.75v2.19a7.31,7.31,0,0,1,2.13-1.65,5.22,5.22,0,0,1,2.34-.54,3.67,3.67,0,0,1,3,1.24,5.9,5.9,0,0,1,1,3.76V162a2.42,2.42,0,0,0,.29,1.46,1.55,1.55,0,0,0,1.07.36v1.53H229.2v-1.53a1.11,1.11,0,0,0,.87-.35,2.76,2.76,0,0,0,.23-1.38v-7.42a2.41,2.41,0,0,0-.26-1.34,1.15,1.15,0,0,0-.95-.33,2.69,2.69,0,0,0-1.16.27,3.06,3.06,0,0,0-1,.77v8a2.59,2.59,0,0,0,.23,1.39,1.06,1.06,0,0,0,.86.34v1.53h-7.55"/><g class="cls-3"><path class="cls-2" d="M245.52,150.07V163.6a6.24,6.24,0,0,1-1.08,3.5,15.89,15.89,0,0,1-3.6,3.55l-2.25-.47a10.86,10.86,0,0,0,1.39-2.55,7.06,7.06,0,0,0,.43-2.45V154l-1.32-1.14v-.94l4.7-1.81Zm-5.79-4.71a2.14,2.14,0,0,1,.87-1.7,3.16,3.16,0,0,1,2.06-.71,3.2,3.2,0,0,1,2.07.7,2.11,2.11,0,0,1,0,3.4,3.45,3.45,0,0,1-4.14,0,2.1,2.1,0,0,1-.86-1.69"/></g><path class="cls-2" d="M250.08,155.79a6.06,6.06,0,0,1-.21-.95,4.62,4.62,0,0,1-.07-.79,3.26,3.26,0,0,1,1.78-3,9.88,9.88,0,0,1,5-1.05,6.54,6.54,0,0,1,4.32,1.18,4.6,4.6,0,0,1,1.38,3.7v6.22a3.24,3.24,0,0,0,.17,1.29.6.6,0,0,0,.59.36.91.91,0,0,0,.35-.07l.45-.24v1.91a4.93,4.93,0,0,1-1.65,1,5.8,5.8,0,0,1-2,.35,3,3,0,0,1-1.74-.45,2.35,2.35,0,0,1-.92-1.34,8.36,8.36,0,0,1-2.14,1.29,6.18,6.18,0,0,1-2.24.42,4.32,4.32,0,0,1-2.93-.91,3.17,3.17,0,0,1-1.06-2.56,3.56,3.56,0,0,1,.91-2.54,10.45,10.45,0,0,1,3.58-2l3.49-1.4v-2.79a2.42,2.42,0,0,0-.27-1.31,1,1,0,0,0-.9-.39,1.37,1.37,0,0,0-1.08.41,1.76,1.76,0,0,0-.36,1.2c0,.12,0,.29,0,.51s.05.46.08.76Zm7,2.09-1.47.84a3.8,3.8,0,0,0-1.31,1A2.12,2.12,0,0,0,254,161a2,2,0,0,0,.46,1.41,1.65,1.65,0,0,0,1.26.5,1.29,1.29,0,0,0,1.08-.44,2.13,2.13,0,0,0,.35-1.34v-3.28"/><g class="cls-4"><path class="cls-2" d="M266.87,146.18l-1.3-1.13v-1l4.68-1.8H272V152a6,6,0,0,1,1.73-1.48,3.86,3.86,0,0,1,1.89-.49,5,5,0,0,1,4.18,2,8.8,8.8,0,0,1,1.55,5.47q0,4-1.88,6.1a7,7,0,0,1-5.52,2.09,15,15,0,0,1-3.42-.4,21.49,21.49,0,0,1-3.65-1.23ZM272,161.5a3.27,3.27,0,0,0,.47,1.92,1.6,1.6,0,0,0,1.39.65,1.63,1.63,0,0,0,1.62-.9,12.6,12.6,0,0,0,.44-4.3,13,13,0,0,0-.5-4.38,1.78,1.78,0,0,0-1.75-1.19,1.56,1.56,0,0,0-1.24.47,1.94,1.94,0,0,0-.43,1.37v6.36"/></g><path class="cls-5" d="M118.33,115.23a16.79,16.79,0,0,0-4.48.58,60.82,60.82,0,0,0,22.39,6,34.05,34.05,0,0,1-7.54-3.25c-3.21-1.73-6.24-3.36-10.37-3.36"/><path class="cls-5" d="M153.61,118.57a35.63,35.63,0,0,1-7.21,3.17,60.9,60.9,0,0,0,21.46-6.12,19.93,19.93,0,0,0-4-.39c-4,0-7.07,1.63-10.28,3.34"/><path class="cls-5" d="M174.64,107c-3.14-1.46-6.09-2.84-10.75-2.84-4,0-7.07,1.63-10.28,3.34-3.42,1.84-7.31,3.91-12.5,3.91s-9-2.07-12.41-3.89c-3.21-1.73-6.24-3.36-10.37-3.36s-6.7,1.23-9.74,2.65a41.33,41.33,0,0,1-5.5,2.24q1.95,1.53,4,2.9a25.42,25.42,0,0,1,11.22-2.72c5.65,0,9.67,2.17,13.22,4.08,3.16,1.7,5.89,3.17,9.56,3.17s6.46-1.48,9.67-3.2c3.54-1.9,7.56-4,13.11-4a26.32,26.32,0,0,1,10.93,2.34c1.32-.89,2.59-1.85,3.84-2.84-1.42-.53-2.73-1.13-4-1.73"/><path class="cls-5" d="M106.05,101.38c3.22-1.51,6.88-3.22,12.28-3.22,5.65,0,9.67,2.17,13.22,4.08,3.16,1.7,5.89,3.17,9.56,3.17s6.46-1.48,9.67-3.2c3.54-1.89,7.56-4,13.11-4,6,0,9.86,1.8,13.28,3.4A25.26,25.26,0,0,0,184,104,64,64,0,0,0,188.37,99c-.57,0-1.12.07-1.7.07-5.23,0-8.69-1.61-12-3.17-3.14-1.46-6.09-2.83-10.75-2.83-4,0-7.07,1.62-10.28,3.33-3.42,1.84-7.31,3.92-12.5,3.92s-9-2.07-12.41-3.9c-3.21-1.72-6.24-3.35-10.37-3.35s-6.7,1.22-9.74,2.64c-3.36,1.58-7.17,3.36-13,3.36-.89,0-1.75,0-2.59-.1a60.13,60.13,0,0,0,4.5,5.07,24.5,24.5,0,0,0,8.59-2.69"/><path class="cls-5" d="M174.64,73.79C171.5,72.34,168.55,71,163.89,71c-4,0-7.07,1.62-10.28,3.34-3.42,1.83-7.31,3.91-12.5,3.91s-9-2.07-12.41-3.89c-3.21-1.73-6.24-3.36-10.37-3.36s-6.7,1.23-9.74,2.65c-3.36,1.57-7.17,3.35-13,3.35a39.41,39.41,0,0,1-14.43-2.73c.38,1.74.83,3.46,1.36,5.14A33.74,33.74,0,0,0,95.55,82c4.54,0,7.43-1.35,10.5-2.79,3.22-1.51,6.88-3.21,12.28-3.21C124,76,128,78.2,131.55,80.1c3.16,1.71,5.89,3.18,9.56,3.18s6.46-1.48,9.67-3.2c3.54-1.9,7.56-4,13.11-4,6,0,9.86,1.8,13.28,3.39,3,1.4,5.6,2.61,9.5,2.61A25.8,25.8,0,0,0,199,78.88c.5-1.63.93-3.3,1.29-5A31.57,31.57,0,0,1,186.67,77c-5.23,0-8.69-1.61-12-3.17"/><path class="cls-5" d="M95.55,71c4.54,0,7.43-1.35,10.5-2.79,3.22-1.5,6.88-3.21,12.28-3.21C124,65,128,67.12,131.55,69c3.16,1.7,5.89,3.17,9.56,3.17s6.46-1.48,9.67-3.2c3.54-1.9,7.56-4.05,13.11-4.05,6,0,9.86,1.81,13.28,3.4,3,1.39,5.6,2.6,9.5,2.6a26.21,26.21,0,0,0,14.76-4.61c.16-1.76.25-3.54.25-5.34a61,61,0,0,0-122,0c0,2.06.11,4.11.31,6.12A34.08,34.08,0,0,0,95.55,71"/><path class="cls-5" d="M95.55,93.1c4.54,0,7.43-1.36,10.5-2.79,3.22-1.51,6.88-3.21,12.28-3.21,5.65,0,9.67,2.16,13.22,4.07,3.16,1.71,5.89,3.18,9.56,3.18s6.46-1.49,9.67-3.21c3.54-1.89,7.56-4,13.11-4,6,0,9.86,1.8,13.28,3.39,3,1.4,5.6,2.61,9.5,2.61a25.76,25.76,0,0,0,6.38-.81,64.1,64.1,0,0,0,3-5.68A31.7,31.7,0,0,1,186.67,88c-5.23,0-8.69-1.61-12-3.17C171.5,83.41,168.55,82,163.89,82c-4,0-7.07,1.62-10.28,3.34-3.42,1.83-7.31,3.91-12.5,3.91s-9-2.07-12.41-3.89c-3.21-1.73-6.24-3.36-10.37-3.36s-6.7,1.22-9.74,2.65c-3.36,1.57-7.17,3.35-13,3.35a39.57,39.57,0,0,1-10.22-1.35,61.17,61.17,0,0,0,3,5.61,33.54,33.54,0,0,0,7.26.81"/></g></g></g></svg>