<svg xmlns="http://www.w3.org/2000/svg" viewBox="0 0 213.12 54.62"><defs><style>.cls-1{fill:#fff;}.cls-2{fill:#006cb6;}.cls-3{fill:#e4a724;}.cls-4{fill:#007ebc;}.cls-5{fill:#5d97c8;}.cls-6{fill:#93b3d9;}.cls-7{fill:#c6d4e4;}.cls-8{fill:#1d1d1b;}</style></defs><g id="Layer_2" data-name="Layer 2"><g id="Layer_1-2" data-name="Layer 1"><rect class="cls-1" width="22.86" height="22.85"/><path class="cls-2" d="M18.46,5.91C15,11.07,10,17.92.71,17.35V.72h20.9S20.39,3,18.46,5.91"/><path class="cls-3" d="M.71,18.6v3.54H22.15V1S15.29,20,.71,18.6"/><path class="cls-4" d="M8,6.4A5.22,5.22,0,0,0,6.54,16.64a17.6,17.6,0,0,0,6.61-4.08,5.77,5.77,0,0,0,.08-.94A5.22,5.22,0,0,0,8,6.4"/><path class="cls-5" d="M11.92,11.62A3.94,3.94,0,1,1,8,7.71a3.92,3.92,0,0,1,3.93,3.91"/><path class="cls-6" d="M10.61,11.62A2.62,2.62,0,1,1,8,9a2.61,2.61,0,0,1,2.63,2.61"/><path class="cls-7" d="M9.3,11.62A1.32,1.32,0,1,1,8,10.32a1.3,1.3,0,0,1,1.31,1.3"/><path class="cls-2" d="M36,13.13h3.39a4,4,0,0,1,2.48.58,1.81,1.81,0,0,1,.71,1.5,2,2,0,0,1-.71,1.6,3.84,3.84,0,0,1-2.45.6H36M29.2,22H40.79c.48,0,1.49-.1,3-.29A6.93,6.93,0,0,0,46.34,21,5.71,5.71,0,0,0,49.27,16a5.14,5.14,0,0,0-1.1-3.37,6.12,6.12,0,0,0-3.45-1.89,5.54,5.54,0,0,0,2.34-1.41,4.72,4.72,0,0,0,1.21-3.24,4.84,4.84,0,0,0-1.69-3.76A7,7,0,0,0,41.76.76H29.2ZM36,5.08h3a3.39,3.39,0,0,1,2.14.53,1.79,1.79,0,0,1,.61,1.44,1.92,1.92,0,0,1-.61,1.52,3.48,3.48,0,0,1-2.19.52H36Z"/><path class="cls-2" d="M57.9,22V13.37h.59a2.76,2.76,0,0,1,1.64.49,5.21,5.21,0,0,1,1.21,1.63L64.91,22H72.5l-3.27-6.15a8.83,8.83,0,0,0-.93-1.32,5.94,5.94,0,0,0-1.08-1.13,6.76,6.76,0,0,0-1.74-.78,8.82,8.82,0,0,0,2.37-.83A6,6,0,0,0,70,9.7a5.77,5.77,0,0,0,.78-3,5.69,5.69,0,0,0-1-3.43,5,5,0,0,0-2.65-1.93A17.28,17.28,0,0,0,62.33.76H51.14V22M57.9,5h2.93a4,4,0,0,1,2.49.56A1.9,1.9,0,0,1,64,7.16a2,2,0,0,1-.41,1.24,1.74,1.74,0,0,1-1.08.66,9.27,9.27,0,0,1-1.77.3H57.9Z"/><path class="cls-2" d="M88.6,22h7L87.52.76h-7.4L72,22h6.86l1.1-3.5h7.59m-6.16-4.58,2.38-7.63,2.36,7.63Z"/><path class="cls-2" d="M110.27,13.24l5.91,1.68a10,10,0,0,1-1.88,3.92,8.06,8.06,0,0,1-3.17,2.35,12.44,12.44,0,0,1-4.81.8,14.69,14.69,0,0,1-5.79-1,9,9,0,0,1-3.87-3.42A11.06,11.06,0,0,1,95,11.33c0-3.39.94-6,2.86-7.83S102.5.76,106,.76a11.52,11.52,0,0,1,6.45,1.57A9.39,9.39,0,0,1,116,7.16l-6,1.27A4.39,4.39,0,0,0,109.34,7,3.73,3.73,0,0,0,108,5.91a4.18,4.18,0,0,0-1.81-.4,4,4,0,0,0-3.49,1.73,7,7,0,0,0-.92,4c0,2.26.37,3.83,1.1,4.67a3.85,3.85,0,0,0,3.08,1.26,3.94,3.94,0,0,0,2.92-1,6,6,0,0,0,1.42-3"/><path class="cls-2" d="M130.19,13.13h3.4a4.08,4.08,0,0,1,2.49.58,1.8,1.8,0,0,1,.69,1.5,2,2,0,0,1-.71,1.6,3.82,3.82,0,0,1-2.44.6h-3.43M123.42,22H135c.5,0,1.5-.1,3-.29a7,7,0,0,0,2.55-.69,5.9,5.9,0,0,0,2.15-2.09,5.76,5.76,0,0,0,.78-3,5.14,5.14,0,0,0-1.1-3.37,6.15,6.15,0,0,0-3.46-1.89,5.48,5.48,0,0,0,2.34-1.41,4.71,4.71,0,0,0,1.2-3.24,4.84,4.84,0,0,0-1.68-3.76A7,7,0,0,0,136,.76H123.42Zm6.77-16.91h3a3.35,3.35,0,0,1,2.14.53,1.76,1.76,0,0,1,.61,1.44,1.89,1.89,0,0,1-.61,1.52,3.43,3.43,0,0,1-2.18.52h-2.92Z"/><path class="cls-2" d="M159.14,22h7L158.08.76h-7.41L142.52,22h6.85l1.1-3.5h7.59m-6.17-4.58,2.39-7.63,2.36,7.63Z"/><polyline class="cls-2" points="166.54 0.76 172.8 0.76 181.01 12.51 181.01 0.76 187.36 0.76 187.36 21.99 181.01 21.99 172.85 10.32 172.85 21.99 166.54 21.99"/><polyline class="cls-2" points="190.05 0.76 196.77 0.76 196.77 8.78 203.81 0.76 212.75 0.76 204.81 8.76 213.12 21.99 204.84 21.99 200.26 13.32 196.77 16.85 196.77 21.99 190.05 21.99"/><path class="cls-8" d="M155.58,36.44h0a1.28,1.28,0,0,0-1,.4,1.83,1.83,0,0,0-.44,1.27v.33a4.14,4.14,0,0,0-1.25-1.12,5.1,5.1,0,0,0-3.86-.16l-.13.15a4.7,4.7,0,0,0-6.12.39c-.59-.29-1.77-.86-1.87-.87l.1,0a1.5,1.5,0,0,0-1.63-.21,1.69,1.69,0,0,0-.7,1.39c-.64-1-1.26-1.52-1.89-1.61a1.16,1.16,0,0,0-1,.3l-.08,0h-.06l0,0c-.9.72-1.43,5.48-1.68,8.55-.45-.28-.95-.57-1.46-.84a8.8,8.8,0,0,0,1-2.69c0-.17.69-4.14-2.18-5.07h0a4.5,4.5,0,0,0-3.23.62,4,4,0,0,0-1.58,2.89,3,3,0,0,0,.83,2.14,2.36,2.36,0,0,0,2,.47.58.58,0,0,0,.43-.26.68.68,0,0,0-.15-.93.67.67,0,0,0-.5-.12,1.12,1.12,0,0,1-.92-.16,1.49,1.49,0,0,1-.39-1,2.72,2.72,0,0,1,1-1.92,3,3,0,0,1,2.13-.41c1.08.35,1.31,1.62,1.31,2.62a6.59,6.59,0,0,1-.07.91h0a8,8,0,0,1-.94,2.54l-.49.61-.07.08a3.32,3.32,0,0,1-2.45,1.14c-5-.6-5.26-9.2-5.26-9.29a.68.68,0,0,0-.68-.66.69.69,0,0,0-.48.21.66.66,0,0,0-.18.48c0,.39.29,9.84,6.45,10.59h0a4.77,4.77,0,0,0,3.63-1.67A15.42,15.42,0,0,1,134,47a.67.67,0,0,0,.73.24.69.69,0,0,0,.49-.57c.33-4.76.94-8.46,1.28-8.82l.14-.06h0s.78.18,2,3l-.18,6.37a.69.69,0,0,0,.66.69.74.74,0,0,0,.47-.18.68.68,0,0,0,.21-.47l.16-6,0-.63.07-2.39a.83.83,0,0,1,0-.34,1.61,1.61,0,0,1,.29.15l0,0c.38.17,1.29.6,1.86.89a6.19,6.19,0,0,0-.11.93,3.28,3.28,0,0,0,.95,2.43l0,0a8.12,8.12,0,0,1,.63,1l.21.43A1.25,1.25,0,0,1,144,44c0,.32-.1.88-.37,1s-.84,0-1.56-.43a.67.67,0,0,0-.69,1.14c1.21.72,2.2.87,2.93.44a2.57,2.57,0,0,0,1-2.25h0v0a3.15,3.15,0,0,0-.33-1c0-.32.15-.67.45-.72a2.32,2.32,0,0,1,2.31,1.4.69.69,0,0,0,.33.28,2.25,2.25,0,0,0-.06.36,2.69,2.69,0,0,0-1.39,1.27,2.78,2.78,0,0,0,.25,2.38L147,48l0,0a1.84,1.84,0,0,0,1.56.64,2.68,2.68,0,0,0,1.74-1.23.63.63,0,0,0,.08-.49.64.64,0,0,0-.3-.42.65.65,0,0,0-.91.2,1.35,1.35,0,0,1-.76.61.54.54,0,0,1-.41-.2,1.43,1.43,0,0,1-.19-.69,1,1,0,0,1,.08-.37,2.36,2.36,0,0,1,1.77-.94,3,3,0,0,1,2.22.82,2.83,2.83,0,0,1,.2,2.58s-1,2.42-7.41.85a.66.66,0,0,0-.81.8c.07.26,1.82,6.07,13.25,4.08a.67.67,0,0,0,.55-.77.68.68,0,0,0-.77-.55c-7,1.22-9.91-.66-11.05-2,6.2,1.1,7.4-1.7,7.51-2a4.1,4.1,0,0,0-.44-3.82,4.27,4.27,0,0,0-3.38-1.3h0a11.37,11.37,0,0,0-.12-5.35l.16,0,0,0h0a3.61,3.61,0,0,1,2.75.08A3.73,3.73,0,0,1,154,41.17l.15.21,0,6a.69.69,0,0,0,.65.68.68.68,0,0,0,.69-.68l0-9.28a.66.66,0,0,1,.06-.32,11.26,11.26,0,0,1,2.41.61.69.69,0,0,0,.49,0,.71.71,0,0,0,.41-.33.68.68,0,0,0-.28-.91,13.74,13.74,0,0,0-3-.75m-7.2,5.72a3.54,3.54,0,0,0-3.15-1.29,1.66,1.66,0,0,0-1,.67l-.06-.1v0l-.09-.11h0l0,0h0a2.6,2.6,0,0,1-.43-2.51h0l0-.08v0a3.37,3.37,0,0,1,4.31-.45,14.17,14.17,0,0,1,.48,3.39,4.2,4.2,0,0,1-.05.51m64.26-5.56a2.94,2.94,0,0,0-3.89.19l-.11.18,0,.06c-2.19-1.2-5.87-.68-5.91-.68a14.79,14.79,0,0,0-3.11.61,5.54,5.54,0,0,0-5.43.58,3.15,3.15,0,0,0-2.38-1.14,2.28,2.28,0,0,0-1.63.91l-.08.14,0,0c-1.9-1.66-5-1.08-6.45-.64l.05-.14-.05.08.09-.15c.18-.53,1.14-3.09,3.34-3.79,1.66-.54,3.69.11,6,1.91a.63.63,0,0,0,.48.14.64.64,0,0,0,.45-.26.67.67,0,0,0-.12-.93c-2.72-2.09-5.17-2.81-7.28-2.13-3.08,1-4.16,4.56-4.18,4.63a14.22,14.22,0,0,0-.85,3.23c-.91-1.89-1.76-2.89-2.64-3a1.15,1.15,0,0,0-1,.3l-.1,0h-.05l-.05,0c-.68.55-1.24,3.44-1.66,8.55-.39-.23-.86-.51-1.47-.84a8.8,8.8,0,0,0,1-2.69c.11-.71.51-4.2-2.17-5.07h0a4.52,4.52,0,0,0-3.24.62,4,4,0,0,0-1.58,2.89v0a2.91,2.91,0,0,0,.83,2.11,2.37,2.37,0,0,0,2,.47.66.66,0,0,0,.56-.75.69.69,0,0,0-.26-.44.72.72,0,0,0-.51-.12,1.13,1.13,0,0,1-.93-.16,1.5,1.5,0,0,1-.39-1,2.68,2.68,0,0,1,1-1.93,3.11,3.11,0,0,1,2.16-.41c1.12.36,1.29,1.8,1.29,2.62a6.62,6.62,0,0,1-.06.91h0a7.77,7.77,0,0,1-1,2.53l0,0-.49.63-.11.12a3.28,3.28,0,0,1-2.41,1.1c-5-.6-5.26-9.2-5.27-9.29a.67.67,0,1,0-1.33,0c0,.4.34,9.85,6.45,10.6h0a4.85,4.85,0,0,0,3.62-1.67A15.07,15.07,0,0,1,176.08,47a.71.71,0,0,0,.74.24.64.64,0,0,0,.48-.57c.35-4.76,1-8.47,1.3-8.82l-.13.07a.64.64,0,0,0,.26-.13h0c.05,0,.84.18,2.18,3.42a.62.62,0,0,0,.35.32c-.21,1.54-.39,3.27-.54,5.18v.2a.66.66,0,0,0,.62.67.67.67,0,0,0,.71-.62,76.69,76.69,0,0,1,1.08-8.5h0c.16-.06,3.39-1.27,5.42-.28a12.16,12.16,0,0,0-3.72,3.56,3.1,3.1,0,0,0-.53,1.63,2.87,2.87,0,0,0,0,.38,2,2,0,0,0,.9,1.31,19.93,19.93,0,0,0,4.45,2.5.67.67,0,0,0,.61-.11.62.62,0,0,0,.27-.53v-.16c0-.67,0-6.54.7-8.69a.89.89,0,0,1,.59-.29,2,2,0,0,1,1.26.71c-.06,1.05-.41,7.2-.43,7.48a2,2,0,0,0,2.08,1.9h.1c.63-.11,3.74-.73,4.62-2.42a2.06,2.06,0,0,0,.24-1,2.39,2.39,0,0,0-.28-1.1l-.12-.18s-2.66-2.72-4.95-3.4l0-.47,0-.26.15-.08s1.68-1.94,4.75-.65a.78.78,0,0,0,.5,0l0,0h0a14.12,14.12,0,0,1,3-.59c.16,0,3.72-.46,5.31.66a17.51,17.51,0,0,0-.3,2.36,2,2,0,0,0-1.25-.51,2.44,2.44,0,0,0-1.73,1,2.5,2.5,0,0,0-.89-.93,2.19,2.19,0,0,0-1.58-.22l-.06,0h0c-1.61.31-2.15,3-2.3,4.18-.25,2.45,1.4,2.69,1.46,2.7a2.44,2.44,0,0,0,2.51-1.53A.66.66,0,0,0,202.8,45a1.08,1.08,0,0,1-1.1.66s-.4-.2-.29-1.23c.16-1.38.73-3,1.24-3l.11,0a.92.92,0,0,1,.63.1,2,2,0,0,1,.76,1.32.66.66,0,0,0,.57.52.68.68,0,0,0,.69-.38c.2-.47.81-1.39,1.29-1.42.28,0,.65.36,1,1l.1.1c0,1.8.08,3.28.09,3.35a.67.67,0,0,0,1.33,0l0-.15,0,.12v-.07c-.05-.91-.07-1.88-.07-2.79a14.81,14.81,0,0,1,.66-5.4,1.55,1.55,0,0,1,2.06.07.68.68,0,0,0,.93-.18.68.68,0,0,0-.16-.92m-23.38,9.28a25.34,25.34,0,0,1-3.23-2,.75.75,0,0,1-.35-.46v-.14a1.85,1.85,0,0,1,.32-.91h0v0a11.75,11.75,0,0,1,3.73-3.4,53.34,53.34,0,0,0-.47,6.89m9-1.92a1,1,0,0,1,.12.45.86.86,0,0,1-.08.36c-.46.88-2.42,1.5-3.57,1.7-.56,0-.69-.33-.72-.54l.28-4.82a14.68,14.68,0,0,1,4,2.85m-8.15-6.52v0l0,0Z"/></g></g></svg>