<svg xmlns="http://www.w3.org/2000/svg" xmlns:xlink="http://www.w3.org/1999/xlink" viewBox="0 0 191.22 136.14"><defs><style>.cls-1{fill:url(#radial-gradient);}.cls-2,.cls-5{fill:#fff;}.cls-3,.cls-4{fill:#023f88;}.cls-3{stroke:#023f88;stroke-miterlimit:3.86;stroke-width:1.97px;}.cls-5,.cls-6{fill-rule:evenodd;}.cls-6,.cls-7{fill:#c4161c;}</style><radialGradient id="radial-gradient" cx="1786.61" cy="-1515.93" r="72.83" gradientTransform="translate(-1692 1584)" gradientUnits="userSpaceOnUse"><stop offset="0" stop-color="#ed1c24"/><stop offset="1" stop-color="#c4161c"/></radialGradient></defs><g id="Layer_2" data-name="Layer 2"><g id="Layer_1-2" data-name="Layer 1"><ellipse class="cls-1" cx="94.61" cy="68.07" rx="72.83" ry="68.07"/><path class="cls-2" d="M9.91,43c8.2.24,171.52,0,171.52,0s6.28-1.46,7.06,5.87l.27,41.6s2.34,6.36-11.79,6.36L13.33,96.33S2.06,99.77,1.8,87.54l.52-37.7S1.71,42.75,9.91,43Z"/><path class="cls-3" d="M182.55,43.94H8.67a4.93,4.93,0,0,0-5.13,4.7v42a4.93,4.93,0,0,0,5.13,4.7H182.55a4.92,4.92,0,0,0,5.13-4.7v-42A4.92,4.92,0,0,0,182.55,43.94Zm0-2.34c4.25,0,7.69,3.15,7.69,7v42c0,3.89-3.44,7.05-7.69,7.05H8.67C4.43,97.65,1,94.49,1,90.6v-42c0-3.89,3.45-7,7.69-7Z"/><path class="cls-4" d="M51.57,57.23a20.34,20.34,0,0,1,3.52,11.42c0,11.82-10.25,21.4-22.9,21.4a23.77,23.77,0,0,1-15-5.25C10.36,76.73,25.52,63.44,51.57,57.23ZM9.29,68.65c0-11.82,10.25-21.4,22.9-21.4a23.37,23.37,0,0,1,18.93,9.34Q28.7,54.28,9.42,70.94A19.29,19.29,0,0,1,9.29,68.65Z"/><path class="cls-5" d="M52.6,58.84C36.87,63.67,20.1,79.05,33.87,86.55,18,88.63,12.48,68.46,52.6,58.84Z"/><path class="cls-6" d="M37.62,59.79C21.88,64.62,5.11,80,18.88,87.49,3,89.58-2.5,69.41,37.62,59.79Z"/><polygon class="cls-3" points="59.42 68.59 189.05 68.67 188.5 70.87 58.74 70.87 59.42 68.59"/><path class="cls-7" d="M66.84,64.24a6.79,6.79,0,0,1-4.44-1.31,4.4,4.4,0,0,1-1.59-3.61A7.92,7.92,0,0,1,61,57.81a13,13,0,0,1,.43-1.68,8.58,8.58,0,0,1,3.06-4.4,8.36,8.36,0,0,1,5.09-1.54,6.15,6.15,0,0,1,4.13,1.17,3.44,3.44,0,0,1,1,3.34H71.55a2.17,2.17,0,0,0-.4-1.88,2.65,2.65,0,0,0-2-.61,3.94,3.94,0,0,0-2.84,1.26,9.05,9.05,0,0,0-2,3.6,9.29,9.29,0,0,0-.3,1.18,5.36,5.36,0,0,0-.12,1,2.68,2.68,0,0,0,.9,2.16,3.76,3.76,0,0,0,2.51.76,10.14,10.14,0,0,0,2-.27l1-3.13H67.49l.69-2.08H74.1l-2.27,6.94A21.24,21.24,0,0,1,66.84,64.24Z"/><polygon class="cls-7" points="74.14 63.97 78.34 50.46 81.28 50.46 77.08 63.97 74.14 63.97"/><path class="cls-6" d="M84.81,62.55a2.24,2.24,0,0,0,1.68-.8,6.08,6.08,0,0,0,1.21-2.34c.11-.36.2-.7.27-1a4.74,4.74,0,0,0,.1-.85,1.51,1.51,0,0,0-.43-1.15,1.77,1.77,0,0,0-1.28-.4,2.35,2.35,0,0,0-1.73.79,6.09,6.09,0,0,0-1.22,2.31,10,10,0,0,0-.26,1.05,4.08,4.08,0,0,0-.1.87,1.47,1.47,0,0,0,.43,1.15A1.89,1.89,0,0,0,84.81,62.55Zm-.37,1.69a5.2,5.2,0,0,1-3.16-.82,2.79,2.79,0,0,1-1.12-2.37,6.71,6.71,0,0,1,.11-1,10.35,10.35,0,0,1,.29-1.16,6.86,6.86,0,0,1,2.31-3.43,6.38,6.38,0,0,1,3.89-1.14h0a4.84,4.84,0,0,1,3,.83,2.84,2.84,0,0,1,1.07,2.37,6.47,6.47,0,0,1-.12,1.09,8.72,8.72,0,0,1-.32,1.24,6.34,6.34,0,0,1-2.24,3.31,6.18,6.18,0,0,1-3.8,1.11Z"/><path class="cls-6" d="M96.81,62.53c.73,0,1.43-.55,2.11-1.65a6.37,6.37,0,0,0,1-3.39,1.72,1.72,0,0,0-.29-1.12,1.14,1.14,0,0,0-.92-.37,2.54,2.54,0,0,0-1.86.85,5.93,5.93,0,0,0-1.35,2.41,3.4,3.4,0,0,0,0,2.29A1.36,1.36,0,0,0,96.81,62.53ZM95.67,50.46h2.85l-1.59,4.85a4.5,4.5,0,0,1,2.68-1,3.1,3.1,0,0,1,2.33.93,3.23,3.23,0,0,1,.92,2.38,7,7,0,0,1-1.67,4.68,4.94,4.94,0,0,1-3.92,2,3,3,0,0,1-2.81-1.45l-.09-.16L93.94,64H91.23Z"/><path class="cls-6" d="M110.47,59.91l.17-.56h-1a4.4,4.4,0,0,0-2.32.54,1.56,1.56,0,0,0-.83,1.39,1.36,1.36,0,0,0,.28.93,1.08,1.08,0,0,0,.84.32,2.42,2.42,0,0,0,1.76-.85A5.1,5.1,0,0,0,110.47,59.91Zm-3.94,4.33a3.16,3.16,0,0,1-2.09-.68,2.22,2.22,0,0,1-.81-1.74,3.42,3.42,0,0,1,1.54-2.94,7.36,7.36,0,0,1,4.25-1.06h1.65l.16-.51a1.2,1.2,0,0,0-.06-1.12,1.38,1.38,0,0,0-1.11-.37,1.65,1.65,0,0,0-1,.27,2.08,2.08,0,0,0-.64.93h-2.87a3.41,3.41,0,0,1,1.57-2.09,6.45,6.45,0,0,1,3.19-.64,4.5,4.5,0,0,1,3.23.93,2,2,0,0,1,.61,1.5,4,4,0,0,1-.18,1.13l-1.07,3.41c-.13.42-.24.86-.34,1.32s-.19.92-.25,1.39h-2.64l.06-1A5.18,5.18,0,0,1,106.53,64.24Z"/><polygon class="cls-7" points="114.09 63.97 118.28 50.46 121.22 50.46 117.02 63.97 114.09 63.97"/><path class="cls-6" d="M131.9,56.39h1.67a5.38,5.38,0,0,0,2.86-.66A2,2,0,0,0,137.5,54a1.18,1.18,0,0,0-.62-1.08,3.63,3.63,0,0,0-1.84-.36h-1.91ZM126.33,64l4.45-13.51h4.43a8.89,8.89,0,0,1,4.11.7,2.4,2.4,0,0,1,1.27,2.27,3.52,3.52,0,0,1-1.61,3,6.47,6.47,0,0,1-2.77,1,4.34,4.34,0,0,1,1.08.33,1.69,1.69,0,0,1,.87,1.75c-.07.81-.11,1.55-.14,2.22s0,1.21,0,1.54a2.92,2.92,0,0,0,.08.69h-3a8.12,8.12,0,0,1-.12-1.11c0-.33,0-.7,0-1.1l.08-1.92a1.16,1.16,0,0,0-.39-1,2,2,0,0,0-1.26-.35h-2.22L129.5,64Z"/><path class="cls-6" d="M147.61,58.21v0a4.15,4.15,0,0,0,.15-.61,2.43,2.43,0,0,0,0-.51,1.19,1.19,0,0,0-.36-.94,1.5,1.5,0,0,0-1-.32h0a2,2,0,0,0-1.62.83,6.42,6.42,0,0,0-.84,1.58Zm-3,6a5.73,5.73,0,0,1-3.28-.77,2.7,2.7,0,0,1-1.08-2.34,6.92,6.92,0,0,1,.12-1.15,10.42,10.42,0,0,1,.32-1.32,6.23,6.23,0,0,1,2.17-3.23,5.91,5.91,0,0,1,3.66-1.14h.07a5.33,5.33,0,0,1,3.07.72,2.44,2.44,0,0,1,1,2.17v0a6.11,6.11,0,0,1-.1,1.08,11,11,0,0,1-.32,1.25l-.12.4h-6.8l-.09.46a5.14,5.14,0,0,0-.08.82,1.6,1.6,0,0,0,.36,1.12,1.34,1.34,0,0,0,1,.39A2.21,2.21,0,0,0,146,62.3a3.25,3.25,0,0,0,1-1.3h2.88a5,5,0,0,1-1.94,2.44A5.88,5.88,0,0,1,144.65,64.24Z"/><path class="cls-6" d="M150.67,64l2.91-9.41h2.74l-.27,1.25.24-.21a4.74,4.74,0,0,1,3.12-1.31,2.62,2.62,0,0,1,2.34,1,2.09,2.09,0,0,1,.33.8l.53-.48a4.88,4.88,0,0,1,3.2-1.3,2.71,2.71,0,0,1,2.39,1,2.34,2.34,0,0,1,.39,1.36,4.48,4.48,0,0,1-.24,1.35l-1.85,6h-2.94l1.84-6a1.76,1.76,0,0,0,0-1.35,1,1,0,0,0-1-.46,2.22,2.22,0,0,0-1.61.74,6.71,6.71,0,0,0-1.32,2.2L160,64h-2.89L159,58a1.76,1.76,0,0,0,0-1.35,1,1,0,0,0-1-.46,2.24,2.24,0,0,0-1.62.74,6.54,6.54,0,0,0-1.31,2.2L153.61,64Z"/><path class="cls-6" d="M172.61,50.46h3.15L175,52.9h-3.15ZM168.53,64l2.92-9.41h2.94L171.47,64Z"/><path class="cls-7" d="M179.8,64.08a10.81,10.81,0,0,1-1.92.16,2.5,2.5,0,0,1-2.09-.73,2.25,2.25,0,0,1-.13-2.12l1.58-5.12h-1.87l.53-1.71h1.87l.65-2.06,3-.66-.85,2.72h1.86l-.53,1.71H180l-1.58,5.12a1.16,1.16,0,0,0,0,.88.73.73,0,0,0,.69.28,4.17,4.17,0,0,0,1.16-.23Z"/><path class="cls-7" d="M66.2,79.6a3.66,3.66,0,0,1,.36,3.34l-1.11,4a4.18,4.18,0,0,1-1,1.64,4.85,4.85,0,0,1-3.77,1.6,4.64,4.64,0,0,1-3.1-.77c-.59-.56-.7-1.45-.35-2.7a6.11,6.11,0,0,1,1.87-3.15,4.22,4.22,0,0,1,2.81-1,1,1,0,0,1,.6.26c.19.17.31.25.34.24l-.37,1.32a.87.87,0,0,0-.74-.58,2.27,2.27,0,0,0-1,.81A4.9,4.9,0,0,0,60,86.13a3.73,3.73,0,0,0-.19,1.72c.12.42.48.63,1.09.64.82,0,1.4-.59,1.75-1.82l1-3.47a5.76,5.76,0,0,0,.18-2.26c-.09-.89-.37-1.34-.86-1.34H57.08l.36-1.3h14l-.37,1.3Z"/><path class="cls-7" d="M82,87.86c-.15.53,0,.79.4.79a2.86,2.86,0,0,0,.51-.06l-.91.93a2.64,2.64,0,0,1-1.66.62c-1.12,0-1.53-.62-1.22-1.85,0,0,.09-.28.25-.86l1.13-4a2.1,2.1,0,0,0-.22-.3,1.07,1.07,0,0,0-.72-.2q-1.5,0-2.28,2.76c0,.14-.09.32-.14.53s-.09.32-.1.36H74.67c.1-.37.23-.82.38-1.35s.23-.85.28-1a2.82,2.82,0,0,0,.18-1.34c-.08-.2-.35-.29-.83-.29a1.79,1.79,0,0,0-1.54,1.08,9.91,9.91,0,0,0-.74,2,6.2,6.2,0,0,0-.36,2c.07.56.51.84,1.34.84a1.29,1.29,0,0,0,.74-.28c.26-.18.5-.37.74-.55h2.61a10.75,10.75,0,0,1-2.17,1.9,6.11,6.11,0,0,1-2.91.58c-1.49,0-2.45-.5-2.9-1.51a4.87,4.87,0,0,1,0-3.28A6,6,0,0,1,71.6,82a4.9,4.9,0,0,1,3-.92,3.44,3.44,0,0,1,1.61.3,12.56,12.56,0,0,1,1.06.84,4.22,4.22,0,0,1,2.26-1,3.49,3.49,0,0,1,1.12.22l.33.14.55-2H70.4l.37-1.3h16l-.36,1.3h-2.1Z"/><path class="cls-7" d="M85.83,79.6l.36-1.3h7.06l-.37,1.3h-2.1l-2.31,8.26c-.15.53,0,.8.38.8a3.36,3.36,0,0,0,.53-.07l-.93.93a2.56,2.56,0,0,1-1.64.62c-1.12,0-1.53-.62-1.22-1.85.07-.21.15-.5.24-.85L88,79.6Z"/><path class="cls-7" d="M90.28,78.3c-.16,0-.57,0-1.24,0a6,6,0,0,1-3.54-.88L84,75.74a3.33,3.33,0,0,0-2.36-1.06l.27-1h1.58a4.84,4.84,0,0,1,3,.85c.57.56,1.14,1.1,1.71,1.64a3.72,3.72,0,0,0,2.46,1Z"/><path class="cls-6" d="M98.64,85.73c.09-.25.19-.57.29-1a4.74,4.74,0,0,0,.27-2c-.13-.43-.56-.64-1.29-.64a3.71,3.71,0,0,0-1.7.52ZM95.37,83.2a3.91,3.91,0,0,0-.86,1.69,2.57,2.57,0,0,0,.06,1.83,1.54,1.54,0,0,0,1.55.88,5.2,5.2,0,0,0,1.32-.13,1.4,1.4,0,0,0,.84-.63Zm9.8-3.6h-2l-2.3,8.26c-.15.53,0,.8.35.8a3.36,3.36,0,0,0,.53-.07c-.31.31-.62.62-.91.93a2.63,2.63,0,0,1-1.64.62c-.66,0-1.07-.2-1.24-.59a2.27,2.27,0,0,1,0-1.26,7.59,7.59,0,0,1-1.46.73,6.49,6.49,0,0,1-2.1.31,2.53,2.53,0,0,1-2.69-1.54,5.09,5.09,0,0,1,.07-3.2q1.14-4.08,5.08-4.08c1.54,0,2.52.36,3,1.09l.55-2h-8l.36-1.3h12.8Z"/><path class="cls-7" d="M116.16,87.86c-.14.53,0,.79.4.79a3.05,3.05,0,0,0,.52-.06c-.32.31-.62.62-.92.93a2.62,2.62,0,0,1-1.66.62c-1.12,0-1.53-.62-1.21-1.85l.24-.86,1.12-4a2,2,0,0,0-.21-.3,1.07,1.07,0,0,0-.72-.2q-1.5,0-2.28,2.76l-.15.53c-.05.19-.08.32-.1.36h-2.31c.1-.37.23-.82.37-1.35s.24-.85.28-1a2.88,2.88,0,0,0,.19-1.34c-.08-.2-.35-.29-.83-.29a1.79,1.79,0,0,0-1.54,1.08,10.42,10.42,0,0,0-.75,2,6.38,6.38,0,0,0-.35,2c.06.56.51.84,1.33.84a1.29,1.29,0,0,0,.75-.28l.73-.55h2.62a10.47,10.47,0,0,1-2.18,1.9,6.08,6.08,0,0,1-2.91.58,2.82,2.82,0,0,1-2.89-1.51,4.87,4.87,0,0,1,0-3.28,6,6,0,0,1,2.1-3.34,4.88,4.88,0,0,1,3-.92,3.47,3.47,0,0,1,1.61.3q.12.06,1,.84a4.24,4.24,0,0,1,2.27-1,3.49,3.49,0,0,1,1.12.22l.33.14.55-2h-11.1l.37-1.3h16l-.36,1.3h-2.11Z"/><path class="cls-7" d="M138.48,79.6h-3.81a2.13,2.13,0,0,1,.49,1.31,4.46,4.46,0,0,1-.12,1.57c-.65,2.29-2.28,3.45-4.91,3.45a4,4,0,0,0,.86,1.59,2.75,2.75,0,0,0,2,1,4.71,4.71,0,0,0,2-.64,3.87,3.87,0,0,1-2.3,1.8,6.36,6.36,0,0,1-1.86.51,3.28,3.28,0,0,1-2.72-1.27c-.12-.15-.59-1-1.4-2.52a3.35,3.35,0,0,0-1.82-1.84,4,4,0,0,1,2.25-.9,3.8,3.8,0,0,1,1.49.51,8.06,8.06,0,0,0,1.05.5,2.23,2.23,0,0,0,1.33-.57,2.87,2.87,0,0,0,1-1.55,2.31,2.31,0,0,0-.48-1.88c-.46-.68-.93-1-1.4-1h-5.29l.37-1.3h13.56Z"/><path class="cls-7" d="M135.82,78.3c-.16,0-.57,0-1.24,0a6,6,0,0,1-3.54-.88l-1.54-1.68a3.33,3.33,0,0,0-2.36-1.06l.28-1H129a4.86,4.86,0,0,1,3,.85c.57.56,1.14,1.1,1.71,1.64a3.75,3.75,0,0,0,2.47,1Z"/><path class="cls-7" d="M140.67,87.86c-.14.53,0,.79.36.79a2.85,2.85,0,0,0,.52-.06l-.91.93a2.64,2.64,0,0,1-1.66.62c-1.12,0-1.51-.62-1.18-1.85,0-.21.13-.5.23-.86l2.09-7.83h-2.25l.37-1.3h2.24a7.1,7.1,0,0,1,.18-1,5.51,5.51,0,0,1,3.21-3.51,10.49,10.49,0,0,1,4.39-.92,9.37,9.37,0,0,1,5.1,1.45A5.6,5.6,0,0,1,156.15,78h-2.36c-.25-1.13-1.19-2-2.8-2.63a9.86,9.86,0,0,0-3.47-.66,5.7,5.7,0,0,0-2.23.58c-1,.43-1.5.85-1.62,1.27a8.45,8.45,0,0,0-.22.88.6.6,0,0,0,.35.63,4.06,4.06,0,0,0,1.7.25l-.36,1.28H143Z"/><path class="cls-6" d="M147.08,84c-.35,1.27-.56,2-.6,2.11-.2.54-.44.81-.72.8s-.32-.21-.4-.59a2.29,2.29,0,0,1,0-1.16A1.41,1.41,0,0,1,147.08,84Zm6.12-4.43-.65,2.33h-2.37l.65-2.33Zm-5,0-.65,2.33c-2.48.12-4,1.26-4.63,3.4a3.11,3.11,0,0,0,.39,2.62,2.47,2.47,0,0,0,2.2,1.22,3.37,3.37,0,0,0,2.21-.63,4,4,0,0,0,1.08-1.82l.81-2.84H152l-1.24,4.41c-.32,1.23.07,1.85,1.18,1.85a2.67,2.67,0,0,0,1.68-.62l.89-.93a3,3,0,0,1-.51.07c-.4,0-.53-.27-.37-.8l2.3-8.26h2l.37-1.3H144.79l-.36,1.3Z"/><path class="cls-7" d="M171.63,79.6H169l-1.1,4h-2.62a2,2,0,0,0-.3-1.5,1.7,1.7,0,0,0-1.42-.61,3.32,3.32,0,0,0-2.3,1.09,5.86,5.86,0,0,0-1.57,2.67,2.58,2.58,0,0,0,.5,2.55,2.45,2.45,0,0,0,1.91.91,3.13,3.13,0,0,0,1.55-.54A3.43,3.43,0,0,0,165.25,86H168a5.19,5.19,0,0,1-2.63,3,7.45,7.45,0,0,1-3.78,1.13A6,6,0,0,1,157.82,89a3.46,3.46,0,0,1-1.11-4,6,6,0,0,1,2.57-3.53,7.5,7.5,0,0,1,4.25-1.25,4.48,4.48,0,0,1,2.44.7l.37-1.34h-8.9l.37-1.3H172Z"/><path class="cls-2" d="M53.49,104.35h-.35a1.78,1.78,0,0,0-.3-1,2.28,2.28,0,0,0-2.15-1.12,2.06,2.06,0,0,0-1.32.46,2.12,2.12,0,0,0-.78,1.13,1.55,1.55,0,0,0,0,.8h1.57l-.32,1.14H48.55l-1.79,6.42-1-1.25,1.45-5.17H46.14l.32-1.14h1.07a2,2,0,0,1,0-1.5c.17-.61.79-1.15,1.86-1.6a1.91,1.91,0,0,1,.76-.14,3.79,3.79,0,0,1,2.14.64A2.62,2.62,0,0,1,53.49,104.35Z"/><path class="cls-5" d="M58.29,105.76H54a3.89,3.89,0,0,0-1.91.5,2.47,2.47,0,0,0-1.26,1.47c-.11.39,0,.58.25.58a2.3,2.3,0,0,0,1-.26,1.3,1.3,0,0,0,.47-.3l.29,1.23a2.6,2.6,0,0,0-1.08.52,2.36,2.36,0,0,0-1,1.11.58.58,0,0,0,0,.32q.16.42.81.42a6.26,6.26,0,0,0,2.48-.8,4,4,0,0,0,2.29-2.21,3.33,3.33,0,0,0,.17-.92c0-.32-.18-.49-.47-.49-.53,0-1,.38-1.37,1.14a2.35,2.35,0,0,0-.17.44,1.17,1.17,0,0,0,.21,1.12,1.22,1.22,0,0,1-1-.56,1.4,1.4,0,0,1-.13-1.14,2.36,2.36,0,0,1,.76-1.16,2,2,0,0,1,1.27-.49,1.43,1.43,0,0,1,1.39.78,2.28,2.28,0,0,1,.08,1.66,4.49,4.49,0,0,1-1.77,2.42,4.9,4.9,0,0,1-2.89,1c-1.45,0-2.26-.43-2.41-1.28a2.08,2.08,0,0,1,0-1,2.89,2.89,0,0,1,.58-1,1.12,1.12,0,0,1-.76-1.45A2.72,2.72,0,0,1,51,105.76H49.86l.31-1.14H58.6Z"/><path class="cls-2" d="M65.32,105.76H63l-.85,3H60a2.15,2.15,0,0,0-1,.31,1.66,1.66,0,0,0-.86.87c-.19.66.15,1,1,1a8.3,8.3,0,0,0,1.54-.24,3.56,3.56,0,0,0,1.44-.51l.5,1.28a4.68,4.68,0,0,1-1.11.38,7,7,0,0,1-1.82.32,2.57,2.57,0,0,1-1.92-.71,1.8,1.8,0,0,1-.42-1.87,3.5,3.5,0,0,1,.92-1.59,2.35,2.35,0,0,1,1.72-.73h1.18l.43-1.52H58.17l.32-1.14h7.15Z"/><polygon class="cls-2" points="68.65 105.75 67.4 105.75 65.6 112.18 64.66 110.76 66.06 105.75 65.06 105.75 65.37 104.62 68.97 104.62 68.65 105.75"/><path class="cls-2" d="M69.23,111.57c-.09.16-.19.35-.32.56a7.12,7.12,0,0,1-1.19,1.59l-.74.64-.25-.29a2.53,2.53,0,0,0,1-1.38,1.5,1.5,0,0,0-.11-1.12l1-.72Z"/><path class="cls-5" d="M81.17,105.76H76.83a3.89,3.89,0,0,0-1.91.5,2.47,2.47,0,0,0-1.26,1.47c-.11.39,0,.58.25.58a2.23,2.23,0,0,0,1-.26,1.5,1.5,0,0,0,.48-.3l.28,1.23a2.51,2.51,0,0,0-1.06.52,2.34,2.34,0,0,0-1,1.11.5.5,0,0,0,0,.32c.1.28.37.42.8.42a6.26,6.26,0,0,0,2.48-.8,4,4,0,0,0,2.3-2.21,2.8,2.8,0,0,0,.15-.92c0-.32-.17-.49-.46-.49-.53,0-1,.38-1.37,1.14a2.35,2.35,0,0,0-.17.44,1.19,1.19,0,0,0,.2,1.12,1.22,1.22,0,0,1-1-.56,1.32,1.32,0,0,1-.12-1.14,2.27,2.27,0,0,1,.75-1.16,1.93,1.93,0,0,1,1.27-.49,1.41,1.41,0,0,1,1.38.78,2.22,2.22,0,0,1,.09,1.66,4.46,4.46,0,0,1-1.78,2.42,4.83,4.83,0,0,1-2.88,1c-1.45,0-2.25-.43-2.41-1.28a2.08,2.08,0,0,1,0-1,2.89,2.89,0,0,1,.58-1,1.12,1.12,0,0,1-.76-1.45,2.72,2.72,0,0,1,1.18-1.66H72.73l.32-1.14h8.43Z"/><path class="cls-2" d="M88.4,104.35h-.35a1.88,1.88,0,0,0-.31-1,2.28,2.28,0,0,0-2.15-1.12,2.05,2.05,0,0,0-1.31.46,2.12,2.12,0,0,0-.78,1.13,1.45,1.45,0,0,0,0,.8h1.56l-.31,1.14h-1.3l-1.8,6.42-1-1.25,1.45-5.17H81.05l.32-1.14h1.06a2,2,0,0,1,0-1.5c.18-.61.79-1.15,1.86-1.6a1.93,1.93,0,0,1,.77-.14,3.81,3.81,0,0,1,2.14.64A2.64,2.64,0,0,1,88.4,104.35Z"/><path class="cls-2" d="M91.72,105.76H89.15a2.86,2.86,0,0,1-.06,1.3,3.55,3.55,0,0,1-.54,1.16,8.14,8.14,0,0,1-.53.65,6.33,6.33,0,0,1-1.12,1L89,112.06l-.7.7-2.08-2.59c-.43-.54-.68-.88-.75-1a1.35,1.35,0,0,1-.18-1.08,1.17,1.17,0,0,1,.42-.7,1.42,1.42,0,0,1,.81-.2,1.69,1.69,0,0,1,.5.11,1.57,1.57,0,0,0,.47.1c.28,0,.48-.24.62-.74l.05-.18a.92.92,0,0,0,0-.72H84.76l.32-1.14h7Z"/><path class="cls-2" d="M98.29,105.71H97L95.2,112l-.93-1.22.75-2.69H93.68c-1.06,0-1.68.31-1.85.94a1.49,1.49,0,0,0,0,.53,4.19,4.19,0,0,0,.62,1.63,1.24,1.24,0,0,0,.16.24l-.46.45a1.91,1.91,0,0,1-.41-.5,3.91,3.91,0,0,1-.7-2.15,3.6,3.6,0,0,1,.16-1.1,1.66,1.66,0,0,1,1-1,3.12,3.12,0,0,1,1.42-.34h1.84l.29-1h-4L92,104.6h6.56Z"/><polygon class="cls-2" points="101.84 105.75 100.6 105.75 98.8 112.18 97.86 110.76 99.26 105.75 98.25 105.75 98.57 104.62 102.16 104.62 101.84 105.75"/><path class="cls-2" d="M100.53,104.58h-.61a1.52,1.52,0,0,0-1.14-1.09l-.27-.07h-.27a1.93,1.93,0,0,0-.45,0l-.61-1.24a4.54,4.54,0,0,1,.59,0,2.32,2.32,0,0,1,2,.89A4.81,4.81,0,0,1,100.53,104.58Z"/><path class="cls-2" d="M102.43,111.57l-.32.56a7.44,7.44,0,0,1-1.19,1.59l-.75.64-.24-.29a2.53,2.53,0,0,0,1-1.38,1.55,1.55,0,0,0-.11-1.12l1-.72Z"/><path class="cls-5" d="M108.57,106.82a.52.52,0,0,0,.2-.34,1.11,1.11,0,0,0,0-.7.49.49,0,0,0-.51-.31.78.78,0,0,0-.84.6.54.54,0,0,0,.2.6,1,1,0,0,0,.67.22A.54.54,0,0,0,108.57,106.82Zm6-1h-1.49l-1.79,6.39-.93-1.19.49-1.74h-2.07l-.33.66c-.06.11-.16.28-.3.49l-.23.33a.5.5,0,0,1-.32.21.25.25,0,0,1-.24-.11s-.06-.12-.12-.25l-.78-1.91a.58.58,0,0,1,0-.13.43.43,0,0,1,0-.27c0-.2.29-.29.71-.29h1l.16-.55a2.17,2.17,0,0,1-1.44-.47,1.14,1.14,0,0,1-.42-1.28.75.75,0,0,1,.07-.18,1.34,1.34,0,0,1,1.25-.85,1.72,1.72,0,0,1,1.81,1.59,1.43,1.43,0,0,1,0,.65l-.3,1.09h2l.62-2.19h-1.43l-.62-1.14h5.12Z"/><path class="cls-2" d="M121.43,105.76h-2.58a2.72,2.72,0,0,1-.06,1.3,3.54,3.54,0,0,1-.53,1.16,8.14,8.14,0,0,1-.53.65,6.33,6.33,0,0,1-1.12,1l2.11,2.22-.69.7L116,110.17c-.43-.54-.68-.88-.75-1a1.35,1.35,0,0,1-.18-1.08,1.17,1.17,0,0,1,.42-.7,1.38,1.38,0,0,1,.81-.2,1.75,1.75,0,0,1,.5.11,1.59,1.59,0,0,0,.46.1c.28,0,.49-.24.63-.74l0-.18a.92.92,0,0,0,0-.72h-3.38l.32-1.14h6.95Z"/><path class="cls-5" d="M124.57,107.74l.55-2h-2l-.7,2.45a.58.58,0,0,0,.08.5.52.52,0,0,0,.45.21,1.21,1.21,0,0,0,.66-.26l.59-.43A1.12,1.12,0,0,0,124.57,107.74Zm3.2-2h-1.31l-1.79,6.41-1-1.28.44-1.58a2.74,2.74,0,0,1-1.12.26,1.73,1.73,0,0,1-1-.29,1.48,1.48,0,0,1-.62-.7,1.25,1.25,0,0,1,0-.88l.54-1.94h-.52l.32-1.14h6.36Z"/><path class="cls-2" d="M133.8,105.76h-1.53l-.68,2.41H130c-1.17,0-1.85.29-2,.85s.06.72.6.72a2.58,2.58,0,0,0,.48,0,1.54,1.54,0,0,1,1.27-.81c.69,0,1.07.16,1.15.47a1.05,1.05,0,0,1,0,.5,1.26,1.26,0,0,1-1,.88l.69,1.13-1,.35L129.4,111a1.29,1.29,0,0,1-.39,0,1.68,1.68,0,0,1-1.55-.87,2.27,2.27,0,0,1-.2-1.83,1.74,1.74,0,0,1,.86-1,2.48,2.48,0,0,1,1.3-.38H131l.32-1.14h-3.55l.32-1.14h6Z"/><polygon class="cls-2" points="137.38 105.75 136.14 105.75 134.34 112.18 133.4 110.76 134.8 105.75 133.79 105.75 134.11 104.62 137.7 104.62 137.38 105.75"/><path class="cls-2" d="M136.07,104.58h-.61a1.52,1.52,0,0,0-1.14-1.09l-.27-.07h-.27a1.93,1.93,0,0,0-.45,0l-.61-1.24a4.83,4.83,0,0,1,.6,0,2.33,2.33,0,0,1,2,.89A5,5,0,0,1,136.07,104.58Z"/><path class="cls-2" d="M137.91,102.64l-.36.24a.73.73,0,0,0-.56-.26,1.32,1.32,0,0,0-1.08.41,2,2,0,0,0-.28.59,2.13,2.13,0,0,0-.1,1h-.29a2.07,2.07,0,0,1-.05-1.12l.13-.44a1.8,1.8,0,0,1,.33-.68,1.54,1.54,0,0,1,1.1-.7,1.13,1.13,0,0,1,.74.3A1.17,1.17,0,0,1,137.91,102.64Z"/><polygon class="cls-2" points="137.99 111.52 137.01 112.25 136.42 111.52 137.41 110.8 137.99 111.52"/><polygon class="cls-2" points="141.35 111.52 140.37 112.25 139.78 111.52 140.77 110.8 141.35 111.52"/><polygon class="cls-2" points="144.72 111.52 143.74 112.25 143.15 111.52 144.13 110.8 144.72 111.52"/><path class="cls-2" d="M67.34,104.27h-.62a1.53,1.53,0,0,0-1.14-1.09l-.27-.06-.27,0a2.68,2.68,0,0,0-.45.05L64,101.91a4.41,4.41,0,0,1,.6,0,2.28,2.28,0,0,1,2,.89A5.25,5.25,0,0,1,67.34,104.27Z"/></g></g></svg>