<svg xmlns="http://www.w3.org/2000/svg" viewBox="0 0 800.7 228.64"><defs><style>.cls-1{fill:#15bef0;}.cls-2{fill:#202020;}</style></defs><g id="Layer_2" data-name="Layer 2"><g id="Layer_1-2" data-name="Layer 1"><path class="cls-1" d="M480.9,217.23a11.43,11.43,0,1,0,11.43-11.44,11.41,11.41,0,0,0-11.43,11.44v0m-34.69,0a11.43,11.43,0,1,0,11.44-11.44,11.42,11.42,0,0,0-11.44,11.44v0"/><path class="cls-2" d="M0,.14H45.76V23H0ZM80.1,23h57.15V0h-80V137.23h0v0a45.63,45.63,0,0,0,45.64,45.62h34.37V160.09H102.93a22.86,22.86,0,0,1-22.85-22.86h0ZM297.67,45.53a68.62,68.62,0,0,0,0,137.24h11.46V160.09H297.67c-25.11,0-45.46-20.83-45.46-45.94a45.46,45.46,0,0,1,45.46-45.46v0h22.89V183.08h22.89V45.53Zm-91.78.31a56.94,56.94,0,0,0-34.32,11.44V45.53H148.69V182.77h22.88V101.83a34.33,34.33,0,0,1,55.71-25.65A80.08,80.08,0,0,1,241,57.86a56.94,56.94,0,0,0-35.06-12m194.77-.31H354.88V183.08h22.89V68.72h22.89v0a45.7,45.7,0,0,1,45.74,45.46v68.79h22.88V114.15a68.62,68.62,0,0,0-68.62-68.62m148.62,0a68.62,68.62,0,1,0,0,137.24h11.46V160.09H549.28c-25.11,0-45.47-20.83-45.47-45.94a45.47,45.47,0,0,1,45.47-45.46v0h22.89V183.08h0a22.76,22.76,0,0,1-22.77,22.64H514.78v22.92h34.58a45.7,45.7,0,0,0,45.7-45.56h0V45.53ZM800.7,114.46a68.62,68.62,0,1,1-68.62-68.62,68.62,68.62,0,0,1,68.62,68.62M732.08,68.7a45.76,45.76,0,1,0,45.76,45.76A45.76,45.76,0,0,0,732.08,68.7M640.6,23.24V137.61h0a22.77,22.77,0,0,0,22.77,22.64v22.92a45.7,45.7,0,0,1-45.7-45.56h0V.06h22.88Z"/></g></g></svg>