<svg xmlns="http://www.w3.org/2000/svg" viewBox="0 0 644.14 143.07"><defs><style>.cls-1{opacity:0.99;isolation:isolate;}.cls-2{fill:#ffe500;}.cls-3{fill:#fff;}</style></defs><g id="Layer_2" data-name="Layer 2"><g id="svg16"><rect id="rect24" class="cls-1" width="644.14" height="143.07"/><path id="path4" class="cls-2" d="M197.54,89.12l1.7,6.33-.81.41a14,14,0,0,1-6.6,1.52c-6.23,0-10.09-3.84-10.09-10V68.76h-6.4V62.37h6.4V53.2l7.68-2.06V62.37h8.11v6.39h-8.11V86.38a3.79,3.79,0,0,0,3.82,3.94,7.23,7.23,0,0,0,3.7-.88Zm189-26.76V97h7.68V62.36Zm48.93,17.32a17.68,17.68,0,1,1-35.35,0,17.68,17.68,0,1,1,35.35,0Zm-7.65,0c0-6.09-4.2-10.51-10-10.51s-10.06,4.42-10.06,10.51S412,90.19,417.87,90.19,427.86,85.77,427.86,79.68ZM335,78.77s.7,10.79-11.1,10.79-11.09-10.85-11.09-10.85V50.91h-8.11V78.45c0,11.52,7.54,18.93,19.2,18.93s19.2-7.41,19.2-18.87V50.91H335V78.77Zm55.38-32.69A5.82,5.82,0,0,0,386,55.75h8.76a5.82,5.82,0,0,0-4.38-9.67Zm-133.74,16a13.6,13.6,0,0,0-6.89,2.81v-2.5h-7.68V97h7.68V75.94a5.44,5.44,0,0,1,.39-2.07,7.52,7.52,0,0,1,3.79-4,8.69,8.69,0,0,1,3.46-.72h0a9.21,9.21,0,0,1,3.88.77v-7.4A12.34,12.34,0,0,0,256.68,62.05ZM101.06,50.92,92.28,83.7,81.74,50.92H73.48L62.94,83.7,54.15,50.91H46.07L58.43,97h8.08L77.62,62.82,88.72,97H96.8l12.35-46.08Zm24.83,46.46a17.31,17.31,0,0,1-17.68-17.69,18.82,18.82,0,0,1,1.16-6.56,17.24,17.24,0,0,1,6-7.92A17.89,17.89,0,0,1,125.77,62a15.33,15.33,0,0,1,11.62,4.72,18.1,18.1,0,0,1,4,7.47,27.35,27.35,0,0,1,.75,7.44H115.79l.15.75a9.81,9.81,0,0,0,10,7.78,12,12,0,0,0,8.64-3.54l5.26,4.9A18.62,18.62,0,0,1,125.89,97.38Zm8.37-21.33a8.48,8.48,0,0,0-3.19-5.61,9.06,9.06,0,0,0-5.85-1.7A9.51,9.51,0,0,0,118,72.15,11.65,11.65,0,0,0,116,76h18.28ZM220,97.38a17.31,17.31,0,0,1-17.68-17.69,18.82,18.82,0,0,1,1.16-6.56,17.24,17.24,0,0,1,6-7.92A17.89,17.89,0,0,1,219.83,62a15.33,15.33,0,0,1,11.62,4.72,18.1,18.1,0,0,1,4,7.47,27.35,27.35,0,0,1,.75,7.44H209.85l.15.75A9.81,9.81,0,0,0,220,90.14a12,12,0,0,0,8.64-3.54l5.26,4.9A18.63,18.63,0,0,1,220,97.38Zm8.36-21.33a8.48,8.48,0,0,0-3.19-5.61,9.06,9.06,0,0,0-5.85-1.7,9.51,9.51,0,0,0-7.18,3.41A11.65,11.65,0,0,0,210,76h18.28ZM161,75.8c-3.34-.79-5.7-1.64-5.74-3.61-.05-2.64,2.27-3.44,6.29-3.44h6.93V62.35h-6.86c-6,0-13.61,1.3-13.61,10.3.07,4,2.82,7.17,7.94,8.78,1.18.37,2.38.65,3.54.93,3.56.85,6.63,1.71,6.67,4.36,0,2.4-3.16,3.84-5.84,3.89a12.67,12.67,0,0,1-8.82-3.71l-5,4.67s4.38,5.78,14.13,5.78c6.39,0,12.92-4.14,12.81-10.9S167.12,77.25,161,75.8ZM366.3,62a14.38,14.38,0,0,0-8.68,2.49V62.36h-7.68V97h7.68V76.08A7,7,0,0,1,365,69.29a6.81,6.81,0,0,1,7.15,7.22V97h7.68V76C379.8,67.43,374.3,62,366.3,62Zm-81.84,0a14.38,14.38,0,0,0-8.68,2.49V62.36H268.1V97h7.68V76.08a7,7,0,0,1,7.35-6.79,6.81,6.81,0,0,1,7.15,7.22V97H298V76C298,67.43,292.46,62,284.46,62Zm173.31,0a14.38,14.38,0,0,0-8.68,2.49V62.36h-7.68V97h7.68V76.08a7,7,0,0,1,7.35-6.79,6.81,6.81,0,0,1,7.15,7.22V97h7.68V76C471.27,67.43,465.78,62,457.77,62Z"/><path id="path6" class="cls-2" d="M559.16,50.92,546.62,97h-9.1L528,66.45,518.52,97h-9L496.82,50.92h9.86l7.75,29.16,9.06-29.16h9.12l9.22,29.38,7.58-29.38Zm29,0V79.37a9.78,9.78,0,0,1-2.29,6.55c-1.62,1.72-4.05,2.59-7.23,2.59s-5.61-.87-7.23-2.59a9.78,9.78,0,0,1-2.29-6.55V50.92H565l-5.84,21.46v6.67c0,5.68,1.84,10.49,5.32,13.92s8.36,5.23,14.13,5.23,10.65-1.81,14.13-5.23,5.32-8.24,5.32-13.92V50.92Z"/><path id="path8" class="cls-3" d="M491.62,97,479,50.92h3.23L494.86,97Zm12.17,0L491.13,50.92H487.9L500.55,97Z"/></g></g></svg>